<svg xmlns="http://www.w3.org/2000/svg" width="416" height="279" fill="none" viewBox="0 0 416 279">
  <path fill="url(#a)" d="M32 0h352c17.673 0 32 14.326 32 32v131.026a31.998 31.998 0 0 1-3.963 15.425l-1.896 3.446a32.003 32.003 0 0 0 .586 31.869l.724 1.209A31.995 31.995 0 0 1 416 231.419v14.946c0 17.673-14.327 32-32 32H32c-17.673 0-32-14.327-32-32v-14.946a31.998 31.998 0 0 1 4.549-16.444l.724-1.209a32 32 0 0 0 .586-31.869l-1.896-3.446A32.004 32.004 0 0 1 0 163.026V32C0 14.327 14.327 0 32 0Z"/>
  <defs>
    <linearGradient id="a" x1="416.051" x2=".051" y1="130.105" y2="130.105" gradientUnits="userSpaceOnUse">
      <stop stop-color="#38C1A5"/>
      <stop offset="1" stop-color="#0891D5"/>
    </linearGradient>
  </defs>
</svg>
